<mxfile host="app.diagrams.net" agent="Mozilla/5.0 (Windows NT 10.0; Win64; x64) AppleWebKit/537.36 (KHTML, like Gecko) Chrome/138.0.0.0 Safari/537.36" version="28.0.6" pages="3">
  <diagram name="Página-1" id="FtyRcu_OyCaBhstWfkkx">
    <mxGraphModel dx="1042" dy="527" grid="1" gridSize="10" guides="1" tooltips="1" connect="1" arrows="1" fold="1" page="1" pageScale="1" pageWidth="827" pageHeight="1169" math="0" shadow="0">
      <root>
        <mxCell id="0" />
        <mxCell id="1" parent="0" />
        <mxCell id="K8hEV0xeDy-ZEfYQ-ARj-18" style="edgeStyle=orthogonalEdgeStyle;rounded=0;orthogonalLoop=1;jettySize=auto;html=1;entryX=0;entryY=0.5;entryDx=0;entryDy=0;" edge="1" parent="1" target="K8hEV0xeDy-ZEfYQ-ARj-3">
          <mxGeometry relative="1" as="geometry">
            <mxPoint x="60" y="50" as="sourcePoint" />
            <Array as="points">
              <mxPoint x="80" y="50" />
              <mxPoint x="80" y="150" />
            </Array>
          </mxGeometry>
        </mxCell>
        <mxCell id="K8hEV0xeDy-ZEfYQ-ARj-24" style="edgeStyle=orthogonalEdgeStyle;rounded=0;orthogonalLoop=1;jettySize=auto;html=1;entryX=0;entryY=0.5;entryDx=0;entryDy=0;" edge="1" parent="1" source="K8hEV0xeDy-ZEfYQ-ARj-1" target="K8hEV0xeDy-ZEfYQ-ARj-23">
          <mxGeometry relative="1" as="geometry">
            <Array as="points">
              <mxPoint x="80" y="50" />
              <mxPoint x="80" y="400" />
            </Array>
          </mxGeometry>
        </mxCell>
        <mxCell id="K8hEV0xeDy-ZEfYQ-ARj-25" value="Agendamento&amp;nbsp;&lt;div&gt;Opcional&lt;/div&gt;" style="edgeLabel;html=1;align=center;verticalAlign=middle;resizable=0;points=[];" vertex="1" connectable="0" parent="K8hEV0xeDy-ZEfYQ-ARj-24">
          <mxGeometry x="0.556" y="4" relative="1" as="geometry">
            <mxPoint as="offset" />
          </mxGeometry>
        </mxCell>
        <mxCell id="K8hEV0xeDy-ZEfYQ-ARj-34" style="edgeStyle=orthogonalEdgeStyle;rounded=0;orthogonalLoop=1;jettySize=auto;html=1;entryX=0;entryY=0.5;entryDx=0;entryDy=0;" edge="1" parent="1" source="K8hEV0xeDy-ZEfYQ-ARj-1" target="K8hEV0xeDy-ZEfYQ-ARj-32">
          <mxGeometry relative="1" as="geometry">
            <Array as="points">
              <mxPoint x="80" y="50" />
              <mxPoint x="80" y="480" />
            </Array>
          </mxGeometry>
        </mxCell>
        <mxCell id="K8hEV0xeDy-ZEfYQ-ARj-1" value="Cliente" style="shape=umlActor;verticalLabelPosition=bottom;verticalAlign=top;html=1;outlineConnect=0;" vertex="1" parent="1">
          <mxGeometry x="20" y="20" width="30" height="60" as="geometry" />
        </mxCell>
        <mxCell id="K8hEV0xeDy-ZEfYQ-ARj-6" style="edgeStyle=orthogonalEdgeStyle;rounded=0;orthogonalLoop=1;jettySize=auto;html=1;entryX=0;entryY=0.5;entryDx=0;entryDy=0;" edge="1" parent="1" source="K8hEV0xeDy-ZEfYQ-ARj-3" target="K8hEV0xeDy-ZEfYQ-ARj-5">
          <mxGeometry relative="1" as="geometry" />
        </mxCell>
        <mxCell id="K8hEV0xeDy-ZEfYQ-ARj-3" value="NETSALES" style="rounded=1;whiteSpace=wrap;html=1;" vertex="1" parent="1">
          <mxGeometry x="100" y="120" width="120" height="60" as="geometry" />
        </mxCell>
        <mxCell id="K8hEV0xeDy-ZEfYQ-ARj-16" style="edgeStyle=orthogonalEdgeStyle;rounded=0;orthogonalLoop=1;jettySize=auto;html=1;entryX=0;entryY=0.5;entryDx=0;entryDy=0;" edge="1" parent="1" source="K8hEV0xeDy-ZEfYQ-ARj-5" target="K8hEV0xeDy-ZEfYQ-ARj-7">
          <mxGeometry relative="1" as="geometry" />
        </mxCell>
        <mxCell id="K8hEV0xeDy-ZEfYQ-ARj-5" value="Inclui na proposta Produto Surround" style="rounded=1;whiteSpace=wrap;html=1;" vertex="1" parent="1">
          <mxGeometry x="270" y="120" width="120" height="60" as="geometry" />
        </mxCell>
        <mxCell id="K8hEV0xeDy-ZEfYQ-ARj-11" style="edgeStyle=orthogonalEdgeStyle;rounded=0;orthogonalLoop=1;jettySize=auto;html=1;entryX=0.5;entryY=0;entryDx=0;entryDy=0;" edge="1" parent="1" source="K8hEV0xeDy-ZEfYQ-ARj-7" target="K8hEV0xeDy-ZEfYQ-ARj-9">
          <mxGeometry relative="1" as="geometry" />
        </mxCell>
        <mxCell id="K8hEV0xeDy-ZEfYQ-ARj-12" value="Não" style="edgeLabel;html=1;align=center;verticalAlign=middle;resizable=0;points=[];" vertex="1" connectable="0" parent="K8hEV0xeDy-ZEfYQ-ARj-11">
          <mxGeometry x="-0.24" y="1" relative="1" as="geometry">
            <mxPoint as="offset" />
          </mxGeometry>
        </mxCell>
        <mxCell id="K8hEV0xeDy-ZEfYQ-ARj-13" style="edgeStyle=orthogonalEdgeStyle;rounded=0;orthogonalLoop=1;jettySize=auto;html=1;entryX=0;entryY=0.5;entryDx=0;entryDy=0;" edge="1" parent="1" source="K8hEV0xeDy-ZEfYQ-ARj-7" target="K8hEV0xeDy-ZEfYQ-ARj-8">
          <mxGeometry relative="1" as="geometry" />
        </mxCell>
        <mxCell id="K8hEV0xeDy-ZEfYQ-ARj-14" value="Sim" style="edgeLabel;html=1;align=center;verticalAlign=middle;resizable=0;points=[];" vertex="1" connectable="0" parent="K8hEV0xeDy-ZEfYQ-ARj-13">
          <mxGeometry x="-0.2533" y="4" relative="1" as="geometry">
            <mxPoint as="offset" />
          </mxGeometry>
        </mxCell>
        <mxCell id="K8hEV0xeDy-ZEfYQ-ARj-7" value="Agendamento" style="rhombus;whiteSpace=wrap;html=1;" vertex="1" parent="1">
          <mxGeometry x="445" y="110" width="110" height="80" as="geometry" />
        </mxCell>
        <mxCell id="K8hEV0xeDy-ZEfYQ-ARj-15" style="edgeStyle=orthogonalEdgeStyle;rounded=0;orthogonalLoop=1;jettySize=auto;html=1;entryX=1;entryY=0.5;entryDx=0;entryDy=0;" edge="1" parent="1" source="K8hEV0xeDy-ZEfYQ-ARj-8" target="K8hEV0xeDy-ZEfYQ-ARj-9">
          <mxGeometry relative="1" as="geometry">
            <Array as="points">
              <mxPoint x="660" y="260" />
            </Array>
          </mxGeometry>
        </mxCell>
        <mxCell id="K8hEV0xeDy-ZEfYQ-ARj-8" value="Abre agenda e seleciona data" style="rounded=1;whiteSpace=wrap;html=1;" vertex="1" parent="1">
          <mxGeometry x="600" y="120" width="120" height="60" as="geometry" />
        </mxCell>
        <mxCell id="K8hEV0xeDy-ZEfYQ-ARj-17" style="edgeStyle=orthogonalEdgeStyle;rounded=0;orthogonalLoop=1;jettySize=auto;html=1;entryX=1;entryY=0.5;entryDx=0;entryDy=0;" edge="1" parent="1" source="K8hEV0xeDy-ZEfYQ-ARj-9" target="K8hEV0xeDy-ZEfYQ-ARj-10">
          <mxGeometry relative="1" as="geometry" />
        </mxCell>
        <mxCell id="K8hEV0xeDy-ZEfYQ-ARj-9" value="Cria Proposta" style="rounded=1;whiteSpace=wrap;html=1;" vertex="1" parent="1">
          <mxGeometry x="440" y="230" width="120" height="60" as="geometry" />
        </mxCell>
        <mxCell id="K8hEV0xeDy-ZEfYQ-ARj-21" value="" style="edgeStyle=orthogonalEdgeStyle;rounded=0;orthogonalLoop=1;jettySize=auto;html=1;" edge="1" parent="1" source="K8hEV0xeDy-ZEfYQ-ARj-10" target="K8hEV0xeDy-ZEfYQ-ARj-20">
          <mxGeometry relative="1" as="geometry" />
        </mxCell>
        <mxCell id="K8hEV0xeDy-ZEfYQ-ARj-10" value="Abre Solics (Novas OS)" style="rounded=1;whiteSpace=wrap;html=1;" vertex="1" parent="1">
          <mxGeometry x="270" y="230" width="120" height="60" as="geometry" />
        </mxCell>
        <mxCell id="K8hEV0xeDy-ZEfYQ-ARj-20" value="" style="ellipse;whiteSpace=wrap;html=1;rounded=1;fillColor=#000000;" vertex="1" parent="1">
          <mxGeometry x="140" y="245" width="30" height="30" as="geometry" />
        </mxCell>
        <mxCell id="K8hEV0xeDy-ZEfYQ-ARj-22" value="Cria/Atualiza Contrato" style="text;html=1;align=center;verticalAlign=middle;whiteSpace=wrap;rounded=0;" vertex="1" parent="1">
          <mxGeometry x="125" y="275" width="60" height="30" as="geometry" />
        </mxCell>
        <mxCell id="K8hEV0xeDy-ZEfYQ-ARj-23" value="API Solar" style="rounded=1;whiteSpace=wrap;html=1;" vertex="1" parent="1">
          <mxGeometry x="100" y="370" width="120" height="60" as="geometry" />
        </mxCell>
        <mxCell id="K8hEV0xeDy-ZEfYQ-ARj-28" value="" style="edgeStyle=orthogonalEdgeStyle;rounded=0;orthogonalLoop=1;jettySize=auto;html=1;entryX=0.5;entryY=0;entryDx=0;entryDy=0;" edge="1" parent="1" source="K8hEV0xeDy-ZEfYQ-ARj-23" target="K8hEV0xeDy-ZEfYQ-ARj-7">
          <mxGeometry relative="1" as="geometry">
            <mxPoint x="220" y="400" as="sourcePoint" />
            <mxPoint x="445" y="400" as="targetPoint" />
            <Array as="points">
              <mxPoint x="760" y="400" />
              <mxPoint x="760" y="90" />
              <mxPoint x="500" y="90" />
            </Array>
          </mxGeometry>
        </mxCell>
        <mxCell id="K8hEV0xeDy-ZEfYQ-ARj-35" style="edgeStyle=orthogonalEdgeStyle;rounded=0;orthogonalLoop=1;jettySize=auto;html=1;entryX=0.5;entryY=0;entryDx=0;entryDy=0;" edge="1" parent="1" source="K8hEV0xeDy-ZEfYQ-ARj-32" target="K8hEV0xeDy-ZEfYQ-ARj-7">
          <mxGeometry relative="1" as="geometry">
            <Array as="points">
              <mxPoint x="790" y="480" />
              <mxPoint x="790" y="60" />
              <mxPoint x="500" y="60" />
            </Array>
          </mxGeometry>
        </mxCell>
        <mxCell id="K8hEV0xeDy-ZEfYQ-ARj-32" value="API Digital/&lt;div&gt;E-commerce&lt;/div&gt;" style="rounded=1;whiteSpace=wrap;html=1;" vertex="1" parent="1">
          <mxGeometry x="100" y="450" width="120" height="60" as="geometry" />
        </mxCell>
      </root>
    </mxGraphModel>
  </diagram>
  <diagram name="v2" id="h-mpUWuZhXJ0nH3l_BF_">
    <mxGraphModel dx="1042" dy="527" grid="1" gridSize="10" guides="1" tooltips="1" connect="1" arrows="1" fold="1" page="1" pageScale="1" pageWidth="827" pageHeight="1169" math="0" shadow="0">
      <root>
        <mxCell id="Z6jgbcG3CsSkZIt56fdH-0" />
        <mxCell id="Z6jgbcG3CsSkZIt56fdH-1" parent="Z6jgbcG3CsSkZIt56fdH-0" />
        <mxCell id="Z6jgbcG3CsSkZIt56fdH-2" style="edgeStyle=orthogonalEdgeStyle;rounded=0;orthogonalLoop=1;jettySize=auto;html=1;entryX=0;entryY=0.5;entryDx=0;entryDy=0;" edge="1" parent="Z6jgbcG3CsSkZIt56fdH-1" target="Z6jgbcG3CsSkZIt56fdH-8">
          <mxGeometry relative="1" as="geometry">
            <mxPoint x="60" y="50" as="sourcePoint" />
            <Array as="points">
              <mxPoint x="80" y="50" />
              <mxPoint x="80" y="150" />
            </Array>
          </mxGeometry>
        </mxCell>
        <mxCell id="Z6jgbcG3CsSkZIt56fdH-6" value="Cliente" style="shape=umlActor;verticalLabelPosition=bottom;verticalAlign=top;html=1;outlineConnect=0;" vertex="1" parent="Z6jgbcG3CsSkZIt56fdH-1">
          <mxGeometry x="20" y="20" width="30" height="60" as="geometry" />
        </mxCell>
        <mxCell id="Z6jgbcG3CsSkZIt56fdH-7" style="edgeStyle=orthogonalEdgeStyle;rounded=0;orthogonalLoop=1;jettySize=auto;html=1;entryX=0;entryY=0.5;entryDx=0;entryDy=0;" edge="1" parent="Z6jgbcG3CsSkZIt56fdH-1" source="Z6jgbcG3CsSkZIt56fdH-8" target="Z6jgbcG3CsSkZIt56fdH-10">
          <mxGeometry relative="1" as="geometry" />
        </mxCell>
        <mxCell id="Z6jgbcG3CsSkZIt56fdH-8" value="NETSALES" style="rounded=1;whiteSpace=wrap;html=1;" vertex="1" parent="Z6jgbcG3CsSkZIt56fdH-1">
          <mxGeometry x="100" y="120" width="120" height="60" as="geometry" />
        </mxCell>
        <mxCell id="Z6jgbcG3CsSkZIt56fdH-9" style="edgeStyle=orthogonalEdgeStyle;rounded=0;orthogonalLoop=1;jettySize=auto;html=1;entryX=0;entryY=0.5;entryDx=0;entryDy=0;" edge="1" parent="Z6jgbcG3CsSkZIt56fdH-1" source="Z6jgbcG3CsSkZIt56fdH-10" target="Z6jgbcG3CsSkZIt56fdH-17">
          <mxGeometry relative="1" as="geometry">
            <mxPoint x="445" y="150" as="targetPoint" />
          </mxGeometry>
        </mxCell>
        <mxCell id="Z6jgbcG3CsSkZIt56fdH-10" value="Inclui na proposta Produto Surround" style="rounded=1;whiteSpace=wrap;html=1;" vertex="1" parent="Z6jgbcG3CsSkZIt56fdH-1">
          <mxGeometry x="270" y="120" width="120" height="60" as="geometry" />
        </mxCell>
        <mxCell id="Z6jgbcG3CsSkZIt56fdH-16" style="edgeStyle=orthogonalEdgeStyle;rounded=0;orthogonalLoop=1;jettySize=auto;html=1;entryX=1;entryY=0.5;entryDx=0;entryDy=0;" edge="1" parent="Z6jgbcG3CsSkZIt56fdH-1" source="Z6jgbcG3CsSkZIt56fdH-17" target="Z6jgbcG3CsSkZIt56fdH-19">
          <mxGeometry relative="1" as="geometry">
            <Array as="points">
              <mxPoint x="660" y="260" />
            </Array>
          </mxGeometry>
        </mxCell>
        <mxCell id="Z6jgbcG3CsSkZIt56fdH-17" value="Abre agenda e seleciona data" style="rounded=1;whiteSpace=wrap;html=1;" vertex="1" parent="Z6jgbcG3CsSkZIt56fdH-1">
          <mxGeometry x="600" y="120" width="120" height="60" as="geometry" />
        </mxCell>
        <mxCell id="Z6jgbcG3CsSkZIt56fdH-18" style="edgeStyle=orthogonalEdgeStyle;rounded=0;orthogonalLoop=1;jettySize=auto;html=1;entryX=1;entryY=0.5;entryDx=0;entryDy=0;" edge="1" parent="Z6jgbcG3CsSkZIt56fdH-1" source="Z6jgbcG3CsSkZIt56fdH-19" target="Z6jgbcG3CsSkZIt56fdH-21">
          <mxGeometry relative="1" as="geometry" />
        </mxCell>
        <mxCell id="Z6jgbcG3CsSkZIt56fdH-19" value="Cria Proposta" style="rounded=1;whiteSpace=wrap;html=1;" vertex="1" parent="Z6jgbcG3CsSkZIt56fdH-1">
          <mxGeometry x="440" y="230" width="120" height="60" as="geometry" />
        </mxCell>
        <mxCell id="Z6jgbcG3CsSkZIt56fdH-20" value="" style="edgeStyle=orthogonalEdgeStyle;rounded=0;orthogonalLoop=1;jettySize=auto;html=1;" edge="1" parent="Z6jgbcG3CsSkZIt56fdH-1" source="Z6jgbcG3CsSkZIt56fdH-21" target="Z6jgbcG3CsSkZIt56fdH-22">
          <mxGeometry relative="1" as="geometry" />
        </mxCell>
        <mxCell id="Z6jgbcG3CsSkZIt56fdH-21" value="Abre Solics (Novas OS)" style="rounded=1;whiteSpace=wrap;html=1;" vertex="1" parent="Z6jgbcG3CsSkZIt56fdH-1">
          <mxGeometry x="270" y="230" width="120" height="60" as="geometry" />
        </mxCell>
        <mxCell id="Z6jgbcG3CsSkZIt56fdH-22" value="" style="ellipse;whiteSpace=wrap;html=1;rounded=1;fillColor=#000000;" vertex="1" parent="Z6jgbcG3CsSkZIt56fdH-1">
          <mxGeometry x="140" y="245" width="30" height="30" as="geometry" />
        </mxCell>
        <mxCell id="Z6jgbcG3CsSkZIt56fdH-23" value="Cria/Atualiza Contrato" style="text;html=1;align=center;verticalAlign=middle;whiteSpace=wrap;rounded=0;" vertex="1" parent="Z6jgbcG3CsSkZIt56fdH-1">
          <mxGeometry x="125" y="275" width="60" height="30" as="geometry" />
        </mxCell>
      </root>
    </mxGraphModel>
  </diagram>
  <diagram name="v3" id="82qEkYYtdOLmZOhbnPRo">
    <mxGraphModel dx="1261" dy="751" grid="1" gridSize="10" guides="1" tooltips="1" connect="1" arrows="1" fold="1" page="1" pageScale="1" pageWidth="827" pageHeight="1169" math="0" shadow="0">
      <root>
        <mxCell id="luN2ybg4KDdOnXXhsMmT-0" />
        <mxCell id="luN2ybg4KDdOnXXhsMmT-1" parent="luN2ybg4KDdOnXXhsMmT-0" />
        <mxCell id="luN2ybg4KDdOnXXhsMmT-2" style="edgeStyle=orthogonalEdgeStyle;rounded=0;orthogonalLoop=1;jettySize=auto;html=1;entryX=0;entryY=0.5;entryDx=0;entryDy=0;" parent="luN2ybg4KDdOnXXhsMmT-1" target="luN2ybg4KDdOnXXhsMmT-5" edge="1">
          <mxGeometry relative="1" as="geometry">
            <mxPoint x="50" y="140" as="sourcePoint" />
            <Array as="points">
              <mxPoint x="90" y="140" />
              <mxPoint x="90" y="140" />
            </Array>
          </mxGeometry>
        </mxCell>
        <mxCell id="jagK8JZ-cD4knPiuqzfz-68" style="edgeStyle=orthogonalEdgeStyle;rounded=0;orthogonalLoop=1;jettySize=auto;html=1;entryX=0;entryY=0.5;entryDx=0;entryDy=0;" edge="1" parent="luN2ybg4KDdOnXXhsMmT-1" source="luN2ybg4KDdOnXXhsMmT-3" target="jagK8JZ-cD4knPiuqzfz-62">
          <mxGeometry relative="1" as="geometry">
            <Array as="points">
              <mxPoint x="35" y="790" />
            </Array>
          </mxGeometry>
        </mxCell>
        <mxCell id="jagK8JZ-cD4knPiuqzfz-70" style="edgeStyle=orthogonalEdgeStyle;rounded=0;orthogonalLoop=1;jettySize=auto;html=1;entryX=0;entryY=0.5;entryDx=0;entryDy=0;" edge="1" parent="luN2ybg4KDdOnXXhsMmT-1" source="luN2ybg4KDdOnXXhsMmT-3" target="jagK8JZ-cD4knPiuqzfz-63">
          <mxGeometry relative="1" as="geometry">
            <Array as="points">
              <mxPoint x="35" y="900" />
            </Array>
          </mxGeometry>
        </mxCell>
        <mxCell id="luN2ybg4KDdOnXXhsMmT-3" value="Vendedor" style="shape=umlActor;verticalLabelPosition=bottom;verticalAlign=top;html=1;outlineConnect=0;" parent="luN2ybg4KDdOnXXhsMmT-1" vertex="1">
          <mxGeometry x="20" y="100" width="30" height="60" as="geometry" />
        </mxCell>
        <mxCell id="luN2ybg4KDdOnXXhsMmT-4" style="edgeStyle=orthogonalEdgeStyle;rounded=0;orthogonalLoop=1;jettySize=auto;html=1;entryX=0;entryY=0.5;entryDx=0;entryDy=0;" parent="luN2ybg4KDdOnXXhsMmT-1" source="luN2ybg4KDdOnXXhsMmT-5" target="luN2ybg4KDdOnXXhsMmT-7" edge="1">
          <mxGeometry relative="1" as="geometry" />
        </mxCell>
        <mxCell id="3K5WDLt7FC1SQIRZlHOI-27" style="edgeStyle=orthogonalEdgeStyle;rounded=0;orthogonalLoop=1;jettySize=auto;html=1;entryX=0.25;entryY=0;entryDx=0;entryDy=0;" parent="luN2ybg4KDdOnXXhsMmT-1" source="luN2ybg4KDdOnXXhsMmT-5" target="3K5WDLt7FC1SQIRZlHOI-24" edge="1">
          <mxGeometry relative="1" as="geometry" />
        </mxCell>
        <mxCell id="luN2ybg4KDdOnXXhsMmT-5" value="NETSALES" style="rounded=1;whiteSpace=wrap;html=1;" parent="luN2ybg4KDdOnXXhsMmT-1" vertex="1">
          <mxGeometry x="100" y="110" width="120" height="60" as="geometry" />
        </mxCell>
        <mxCell id="jagK8JZ-cD4knPiuqzfz-46" style="edgeStyle=orthogonalEdgeStyle;rounded=0;orthogonalLoop=1;jettySize=auto;html=1;dashed=1;" edge="1" parent="luN2ybg4KDdOnXXhsMmT-1" source="luN2ybg4KDdOnXXhsMmT-7" target="jagK8JZ-cD4knPiuqzfz-44">
          <mxGeometry relative="1" as="geometry" />
        </mxCell>
        <mxCell id="luN2ybg4KDdOnXXhsMmT-7" value="Venda Prospect" style="rounded=1;whiteSpace=wrap;html=1;" parent="luN2ybg4KDdOnXXhsMmT-1" vertex="1">
          <mxGeometry x="270" y="110" width="120" height="60" as="geometry" />
        </mxCell>
        <mxCell id="3K5WDLt7FC1SQIRZlHOI-5" style="edgeStyle=orthogonalEdgeStyle;rounded=0;orthogonalLoop=1;jettySize=auto;html=1;entryX=0;entryY=0.5;entryDx=0;entryDy=0;exitX=1;exitY=0.5;exitDx=0;exitDy=0;" parent="luN2ybg4KDdOnXXhsMmT-1" source="3K5WDLt7FC1SQIRZlHOI-1" target="3K5WDLt7FC1SQIRZlHOI-3" edge="1">
          <mxGeometry relative="1" as="geometry">
            <Array as="points">
              <mxPoint x="600" y="140" />
              <mxPoint x="600" y="140" />
            </Array>
          </mxGeometry>
        </mxCell>
        <mxCell id="3K5WDLt7FC1SQIRZlHOI-6" value="SoundBox&amp;nbsp;&lt;div&gt;(&lt;span style=&quot;background-color: light-dark(#ffffff, var(--ge-dark-color, #121212)); color: light-dark(rgb(0, 0, 0), rgb(255, 255, 255));&quot;&gt;VSB/IP)&lt;/span&gt;&lt;/div&gt;" style="edgeLabel;html=1;align=center;verticalAlign=middle;resizable=0;points=[];" parent="3K5WDLt7FC1SQIRZlHOI-5" vertex="1" connectable="0">
          <mxGeometry x="-0.5667" y="-2" relative="1" as="geometry">
            <mxPoint x="31" y="-2" as="offset" />
          </mxGeometry>
        </mxCell>
        <mxCell id="3K5WDLt7FC1SQIRZlHOI-8" style="edgeStyle=orthogonalEdgeStyle;rounded=0;orthogonalLoop=1;jettySize=auto;html=1;entryX=0;entryY=0.5;entryDx=0;entryDy=0;exitX=0.5;exitY=0;exitDx=0;exitDy=0;" parent="luN2ybg4KDdOnXXhsMmT-1" source="3K5WDLt7FC1SQIRZlHOI-1" target="3K5WDLt7FC1SQIRZlHOI-7" edge="1">
          <mxGeometry relative="1" as="geometry" />
        </mxCell>
        <mxCell id="3K5WDLt7FC1SQIRZlHOI-9" value="SoundBox Plus&amp;nbsp;&lt;div&gt;(VSB/IP + WSS)&lt;/div&gt;" style="edgeLabel;html=1;align=center;verticalAlign=middle;resizable=0;points=[];" parent="3K5WDLt7FC1SQIRZlHOI-8" vertex="1" connectable="0">
          <mxGeometry x="-0.5778" y="-2" relative="1" as="geometry">
            <mxPoint as="offset" />
          </mxGeometry>
        </mxCell>
        <mxCell id="3K5WDLt7FC1SQIRZlHOI-1" value="TV" style="rhombus;whiteSpace=wrap;html=1;fillColor=#fff2cc;strokeColor=#d6b656;" parent="luN2ybg4KDdOnXXhsMmT-1" vertex="1">
          <mxGeometry x="421" y="100" width="80" height="80" as="geometry" />
        </mxCell>
        <mxCell id="3K5WDLt7FC1SQIRZlHOI-3" value="" style="ellipse;whiteSpace=wrap;html=1;rounded=1;fillColor=#000000;" parent="luN2ybg4KDdOnXXhsMmT-1" vertex="1">
          <mxGeometry x="630" y="125" width="30" height="30" as="geometry" />
        </mxCell>
        <mxCell id="3K5WDLt7FC1SQIRZlHOI-4" value="AS-IS" style="text;html=1;align=center;verticalAlign=middle;whiteSpace=wrap;rounded=0;" parent="luN2ybg4KDdOnXXhsMmT-1" vertex="1">
          <mxGeometry x="615" y="100" width="60" height="30" as="geometry" />
        </mxCell>
        <mxCell id="3K5WDLt7FC1SQIRZlHOI-12" style="edgeStyle=orthogonalEdgeStyle;rounded=0;orthogonalLoop=1;jettySize=auto;html=1;entryX=0;entryY=0.5;entryDx=0;entryDy=0;" parent="luN2ybg4KDdOnXXhsMmT-1" source="3K5WDLt7FC1SQIRZlHOI-7" target="3K5WDLt7FC1SQIRZlHOI-11" edge="1">
          <mxGeometry relative="1" as="geometry" />
        </mxCell>
        <mxCell id="3K5WDLt7FC1SQIRZlHOI-7" value="Adesão Pacote (produto principal + SVA)" style="rounded=1;whiteSpace=wrap;html=1;" parent="luN2ybg4KDdOnXXhsMmT-1" vertex="1">
          <mxGeometry x="530" y="10" width="120" height="60" as="geometry" />
        </mxCell>
        <mxCell id="3K5WDLt7FC1SQIRZlHOI-10" style="edgeStyle=orthogonalEdgeStyle;rounded=0;orthogonalLoop=1;jettySize=auto;html=1;entryX=0;entryY=0.5;entryDx=0;entryDy=0;" parent="luN2ybg4KDdOnXXhsMmT-1" source="luN2ybg4KDdOnXXhsMmT-7" target="3K5WDLt7FC1SQIRZlHOI-1" edge="1">
          <mxGeometry relative="1" as="geometry" />
        </mxCell>
        <mxCell id="3K5WDLt7FC1SQIRZlHOI-14" style="edgeStyle=orthogonalEdgeStyle;rounded=0;orthogonalLoop=1;jettySize=auto;html=1;entryX=0;entryY=0.5;entryDx=0;entryDy=0;" parent="luN2ybg4KDdOnXXhsMmT-1" source="3K5WDLt7FC1SQIRZlHOI-11" target="3K5WDLt7FC1SQIRZlHOI-13" edge="1">
          <mxGeometry relative="1" as="geometry" />
        </mxCell>
        <mxCell id="3K5WDLt7FC1SQIRZlHOI-11" value="Cria Proposta" style="rounded=1;whiteSpace=wrap;html=1;" parent="luN2ybg4KDdOnXXhsMmT-1" vertex="1">
          <mxGeometry x="690" y="10" width="120" height="60" as="geometry" />
        </mxCell>
        <mxCell id="3K5WDLt7FC1SQIRZlHOI-18" style="edgeStyle=orthogonalEdgeStyle;rounded=0;orthogonalLoop=1;jettySize=auto;html=1;entryX=0;entryY=0.5;entryDx=0;entryDy=0;" parent="luN2ybg4KDdOnXXhsMmT-1" source="3K5WDLt7FC1SQIRZlHOI-13" target="3K5WDLt7FC1SQIRZlHOI-15" edge="1">
          <mxGeometry relative="1" as="geometry" />
        </mxCell>
        <mxCell id="3K5WDLt7FC1SQIRZlHOI-13" value="Cria Contrato" style="rounded=1;whiteSpace=wrap;html=1;" parent="luN2ybg4KDdOnXXhsMmT-1" vertex="1">
          <mxGeometry x="840" y="10" width="120" height="60" as="geometry" />
        </mxCell>
        <mxCell id="3K5WDLt7FC1SQIRZlHOI-19" style="edgeStyle=orthogonalEdgeStyle;rounded=0;orthogonalLoop=1;jettySize=auto;html=1;entryX=0;entryY=0.5;entryDx=0;entryDy=0;" parent="luN2ybg4KDdOnXXhsMmT-1" source="3K5WDLt7FC1SQIRZlHOI-15" target="3K5WDLt7FC1SQIRZlHOI-16" edge="1">
          <mxGeometry relative="1" as="geometry" />
        </mxCell>
        <mxCell id="3K5WDLt7FC1SQIRZlHOI-15" value="Abre Solic" style="rounded=1;whiteSpace=wrap;html=1;" parent="luN2ybg4KDdOnXXhsMmT-1" vertex="1">
          <mxGeometry x="990" y="10" width="120" height="60" as="geometry" />
        </mxCell>
        <mxCell id="3K5WDLt7FC1SQIRZlHOI-20" style="edgeStyle=orthogonalEdgeStyle;rounded=0;orthogonalLoop=1;jettySize=auto;html=1;entryX=0;entryY=0.5;entryDx=0;entryDy=0;" parent="luN2ybg4KDdOnXXhsMmT-1" source="3K5WDLt7FC1SQIRZlHOI-16" target="3K5WDLt7FC1SQIRZlHOI-17" edge="1">
          <mxGeometry relative="1" as="geometry" />
        </mxCell>
        <mxCell id="3K5WDLt7FC1SQIRZlHOI-16" value="Abre OS Instalação VSB (AS-IS)" style="rounded=1;whiteSpace=wrap;html=1;" parent="luN2ybg4KDdOnXXhsMmT-1" vertex="1">
          <mxGeometry x="1140" y="10" width="120" height="60" as="geometry" />
        </mxCell>
        <mxCell id="3K5WDLt7FC1SQIRZlHOI-17" value="Abre OS Instalação" style="rounded=1;whiteSpace=wrap;html=1;" parent="luN2ybg4KDdOnXXhsMmT-1" vertex="1">
          <mxGeometry x="1290" y="10" width="120" height="60" as="geometry" />
        </mxCell>
        <mxCell id="3K5WDLt7FC1SQIRZlHOI-21" value="FEPP" style="rounded=1;whiteSpace=wrap;html=1;" parent="luN2ybg4KDdOnXXhsMmT-1" vertex="1">
          <mxGeometry x="615" y="205" width="120" height="60" as="geometry" />
        </mxCell>
        <mxCell id="3K5WDLt7FC1SQIRZlHOI-26" style="edgeStyle=orthogonalEdgeStyle;rounded=0;orthogonalLoop=1;jettySize=auto;html=1;entryX=0;entryY=0.5;entryDx=0;entryDy=0;" parent="luN2ybg4KDdOnXXhsMmT-1" source="3K5WDLt7FC1SQIRZlHOI-24" target="jagK8JZ-cD4knPiuqzfz-19" edge="1">
          <mxGeometry relative="1" as="geometry">
            <Array as="points">
              <mxPoint x="270" y="330" />
            </Array>
          </mxGeometry>
        </mxCell>
        <mxCell id="3K5WDLt7FC1SQIRZlHOI-24" value="Venda Base" style="rounded=1;whiteSpace=wrap;html=1;" parent="luN2ybg4KDdOnXXhsMmT-1" vertex="1">
          <mxGeometry x="130" y="300" width="120" height="60" as="geometry" />
        </mxCell>
        <mxCell id="3K5WDLt7FC1SQIRZlHOI-30" style="edgeStyle=orthogonalEdgeStyle;rounded=0;orthogonalLoop=1;jettySize=auto;html=1;entryX=0;entryY=0.5;entryDx=0;entryDy=0;" parent="luN2ybg4KDdOnXXhsMmT-1" source="3K5WDLt7FC1SQIRZlHOI-25" target="3K5WDLt7FC1SQIRZlHOI-32" edge="1">
          <mxGeometry relative="1" as="geometry">
            <mxPoint x="580" y="330" as="targetPoint" />
          </mxGeometry>
        </mxCell>
        <mxCell id="3K5WDLt7FC1SQIRZlHOI-31" value="Sim" style="edgeLabel;html=1;align=center;verticalAlign=middle;resizable=0;points=[];" parent="3K5WDLt7FC1SQIRZlHOI-30" vertex="1" connectable="0">
          <mxGeometry x="-0.1392" y="-2" relative="1" as="geometry">
            <mxPoint x="-1" as="offset" />
          </mxGeometry>
        </mxCell>
        <mxCell id="jagK8JZ-cD4knPiuqzfz-14" style="edgeStyle=orthogonalEdgeStyle;rounded=0;orthogonalLoop=1;jettySize=auto;html=1;entryX=0;entryY=0.5;entryDx=0;entryDy=0;" edge="1" parent="luN2ybg4KDdOnXXhsMmT-1" source="3K5WDLt7FC1SQIRZlHOI-25" target="jagK8JZ-cD4knPiuqzfz-7">
          <mxGeometry relative="1" as="geometry">
            <Array as="points">
              <mxPoint x="461" y="420" />
            </Array>
          </mxGeometry>
        </mxCell>
        <mxCell id="jagK8JZ-cD4knPiuqzfz-15" value="Não" style="edgeLabel;html=1;align=center;verticalAlign=middle;resizable=0;points=[];" vertex="1" connectable="0" parent="jagK8JZ-cD4knPiuqzfz-14">
          <mxGeometry x="-0.2401" y="-1" relative="1" as="geometry">
            <mxPoint x="-57" y="-21" as="offset" />
          </mxGeometry>
        </mxCell>
        <mxCell id="3K5WDLt7FC1SQIRZlHOI-25" value="Tem TV SoundBox?" style="rhombus;whiteSpace=wrap;html=1;fillColor=#fff2cc;strokeColor=#d6b656;" parent="luN2ybg4KDdOnXXhsMmT-1" vertex="1">
          <mxGeometry x="421" y="290" width="80" height="80" as="geometry" />
        </mxCell>
        <mxCell id="3K5WDLt7FC1SQIRZlHOI-35" style="edgeStyle=orthogonalEdgeStyle;rounded=0;orthogonalLoop=1;jettySize=auto;html=1;entryX=0;entryY=0.5;entryDx=0;entryDy=0;" parent="luN2ybg4KDdOnXXhsMmT-1" source="3K5WDLt7FC1SQIRZlHOI-32" target="3K5WDLt7FC1SQIRZlHOI-34" edge="1">
          <mxGeometry relative="1" as="geometry" />
        </mxCell>
        <mxCell id="jagK8JZ-cD4knPiuqzfz-0" value="Sim" style="edgeLabel;html=1;align=center;verticalAlign=middle;resizable=0;points=[];" vertex="1" connectable="0" parent="3K5WDLt7FC1SQIRZlHOI-35">
          <mxGeometry x="0.0667" y="-1" relative="1" as="geometry">
            <mxPoint as="offset" />
          </mxGeometry>
        </mxCell>
        <mxCell id="jagK8JZ-cD4knPiuqzfz-8" style="edgeStyle=orthogonalEdgeStyle;rounded=0;orthogonalLoop=1;jettySize=auto;html=1;entryX=0;entryY=0.5;entryDx=0;entryDy=0;" edge="1" parent="luN2ybg4KDdOnXXhsMmT-1" source="3K5WDLt7FC1SQIRZlHOI-32" target="jagK8JZ-cD4knPiuqzfz-7">
          <mxGeometry relative="1" as="geometry">
            <Array as="points">
              <mxPoint x="600" y="420" />
            </Array>
          </mxGeometry>
        </mxCell>
        <mxCell id="jagK8JZ-cD4knPiuqzfz-9" value="Não" style="edgeLabel;html=1;align=center;verticalAlign=middle;resizable=0;points=[];" vertex="1" connectable="0" parent="jagK8JZ-cD4knPiuqzfz-8">
          <mxGeometry x="-0.5857" relative="1" as="geometry">
            <mxPoint as="offset" />
          </mxGeometry>
        </mxCell>
        <mxCell id="3K5WDLt7FC1SQIRZlHOI-32" value="Compatível com&amp;nbsp;&lt;div&gt;Surround&lt;/div&gt;" style="rhombus;whiteSpace=wrap;html=1;fillColor=#fff2cc;strokeColor=#d6b656;" parent="luN2ybg4KDdOnXXhsMmT-1" vertex="1">
          <mxGeometry x="560" y="290" width="80" height="80" as="geometry" />
        </mxCell>
        <mxCell id="jagK8JZ-cD4knPiuqzfz-2" value="" style="edgeStyle=orthogonalEdgeStyle;rounded=0;orthogonalLoop=1;jettySize=auto;html=1;entryX=0;entryY=0.129;entryDx=0;entryDy=0;entryPerimeter=0;" edge="1" parent="luN2ybg4KDdOnXXhsMmT-1" source="3K5WDLt7FC1SQIRZlHOI-34" target="jagK8JZ-cD4knPiuqzfz-1">
          <mxGeometry relative="1" as="geometry" />
        </mxCell>
        <mxCell id="3K5WDLt7FC1SQIRZlHOI-34" value="Adesão SVA Surround" style="rounded=1;whiteSpace=wrap;html=1;" parent="luN2ybg4KDdOnXXhsMmT-1" vertex="1">
          <mxGeometry x="690" y="300" width="120" height="60" as="geometry" />
        </mxCell>
        <mxCell id="jagK8JZ-cD4knPiuqzfz-4" value="" style="edgeStyle=orthogonalEdgeStyle;rounded=0;orthogonalLoop=1;jettySize=auto;html=1;" edge="1" parent="luN2ybg4KDdOnXXhsMmT-1" source="jagK8JZ-cD4knPiuqzfz-1" target="jagK8JZ-cD4knPiuqzfz-3">
          <mxGeometry relative="1" as="geometry" />
        </mxCell>
        <mxCell id="jagK8JZ-cD4knPiuqzfz-1" value="Altera Proposta Assinante" style="whiteSpace=wrap;html=1;rounded=1;" vertex="1" parent="luN2ybg4KDdOnXXhsMmT-1">
          <mxGeometry x="840" y="300" width="120" height="240" as="geometry" />
        </mxCell>
        <mxCell id="jagK8JZ-cD4knPiuqzfz-6" value="" style="edgeStyle=orthogonalEdgeStyle;rounded=0;orthogonalLoop=1;jettySize=auto;html=1;" edge="1" parent="luN2ybg4KDdOnXXhsMmT-1" source="jagK8JZ-cD4knPiuqzfz-3" target="jagK8JZ-cD4knPiuqzfz-5">
          <mxGeometry relative="1" as="geometry">
            <Array as="points">
              <mxPoint x="1140" y="330" />
              <mxPoint x="1140" y="330" />
            </Array>
          </mxGeometry>
        </mxCell>
        <mxCell id="jagK8JZ-cD4knPiuqzfz-12" style="edgeStyle=orthogonalEdgeStyle;rounded=0;orthogonalLoop=1;jettySize=auto;html=1;entryX=0;entryY=0.5;entryDx=0;entryDy=0;exitX=1;exitY=0.5;exitDx=0;exitDy=0;" edge="1" parent="luN2ybg4KDdOnXXhsMmT-1" source="jagK8JZ-cD4knPiuqzfz-3" target="jagK8JZ-cD4knPiuqzfz-11">
          <mxGeometry relative="1" as="geometry">
            <Array as="points">
              <mxPoint x="1130" y="420" />
              <mxPoint x="1130" y="420" />
            </Array>
          </mxGeometry>
        </mxCell>
        <mxCell id="jagK8JZ-cD4knPiuqzfz-27" style="edgeStyle=orthogonalEdgeStyle;rounded=0;orthogonalLoop=1;jettySize=auto;html=1;entryX=0;entryY=0.5;entryDx=0;entryDy=0;" edge="1" parent="luN2ybg4KDdOnXXhsMmT-1" source="jagK8JZ-cD4knPiuqzfz-3" target="jagK8JZ-cD4knPiuqzfz-26">
          <mxGeometry relative="1" as="geometry">
            <Array as="points">
              <mxPoint x="1050" y="510" />
            </Array>
          </mxGeometry>
        </mxCell>
        <mxCell id="jagK8JZ-cD4knPiuqzfz-3" value="Abre Solic" style="whiteSpace=wrap;html=1;rounded=1;" vertex="1" parent="luN2ybg4KDdOnXXhsMmT-1">
          <mxGeometry x="990" y="300" width="120" height="240" as="geometry" />
        </mxCell>
        <mxCell id="jagK8JZ-cD4knPiuqzfz-5" value="OS Mudança Pacote UPG Acessórios" style="whiteSpace=wrap;html=1;rounded=1;fillColor=#fff2cc;strokeColor=#d6b656;" vertex="1" parent="luN2ybg4KDdOnXXhsMmT-1">
          <mxGeometry x="1290" y="300" width="120" height="60" as="geometry" />
        </mxCell>
        <mxCell id="jagK8JZ-cD4knPiuqzfz-10" style="edgeStyle=orthogonalEdgeStyle;rounded=0;orthogonalLoop=1;jettySize=auto;html=1;" edge="1" parent="luN2ybg4KDdOnXXhsMmT-1" source="jagK8JZ-cD4knPiuqzfz-7" target="jagK8JZ-cD4knPiuqzfz-1">
          <mxGeometry relative="1" as="geometry" />
        </mxCell>
        <mxCell id="jagK8JZ-cD4knPiuqzfz-7" value="Adesão Pacote Soundbox Plus" style="rounded=1;whiteSpace=wrap;html=1;" vertex="1" parent="luN2ybg4KDdOnXXhsMmT-1">
          <mxGeometry x="690" y="390" width="120" height="60" as="geometry" />
        </mxCell>
        <mxCell id="jagK8JZ-cD4knPiuqzfz-13" style="edgeStyle=orthogonalEdgeStyle;rounded=0;orthogonalLoop=1;jettySize=auto;html=1;entryX=0.5;entryY=1;entryDx=0;entryDy=0;" edge="1" parent="luN2ybg4KDdOnXXhsMmT-1" source="jagK8JZ-cD4knPiuqzfz-11" target="jagK8JZ-cD4knPiuqzfz-5">
          <mxGeometry relative="1" as="geometry" />
        </mxCell>
        <mxCell id="jagK8JZ-cD4knPiuqzfz-11" value="OS Mudança Pacote RET Acessórios" style="whiteSpace=wrap;html=1;rounded=1;fillColor=#fff2cc;strokeColor=#d6b656;" vertex="1" parent="luN2ybg4KDdOnXXhsMmT-1">
          <mxGeometry x="1140" y="390" width="120" height="60" as="geometry" />
        </mxCell>
        <mxCell id="jagK8JZ-cD4knPiuqzfz-23" style="edgeStyle=orthogonalEdgeStyle;rounded=0;orthogonalLoop=1;jettySize=auto;html=1;entryX=0;entryY=0.5;entryDx=0;entryDy=0;" edge="1" parent="luN2ybg4KDdOnXXhsMmT-1" source="jagK8JZ-cD4knPiuqzfz-19" target="jagK8JZ-cD4knPiuqzfz-22">
          <mxGeometry relative="1" as="geometry">
            <Array as="points">
              <mxPoint x="320" y="510" />
            </Array>
          </mxGeometry>
        </mxCell>
        <mxCell id="jagK8JZ-cD4knPiuqzfz-24" value="Sim" style="edgeLabel;html=1;align=center;verticalAlign=middle;resizable=0;points=[];" vertex="1" connectable="0" parent="jagK8JZ-cD4knPiuqzfz-23">
          <mxGeometry x="-0.8353" y="-3" relative="1" as="geometry">
            <mxPoint as="offset" />
          </mxGeometry>
        </mxCell>
        <mxCell id="jagK8JZ-cD4knPiuqzfz-29" style="edgeStyle=orthogonalEdgeStyle;rounded=0;orthogonalLoop=1;jettySize=auto;html=1;entryX=0;entryY=0.5;entryDx=0;entryDy=0;" edge="1" parent="luN2ybg4KDdOnXXhsMmT-1" source="jagK8JZ-cD4knPiuqzfz-19" target="jagK8JZ-cD4knPiuqzfz-28">
          <mxGeometry relative="1" as="geometry">
            <Array as="points">
              <mxPoint x="320" y="600" />
            </Array>
          </mxGeometry>
        </mxCell>
        <mxCell id="jagK8JZ-cD4knPiuqzfz-19" value="Tem TV SoundBox Plus?" style="rhombus;whiteSpace=wrap;html=1;fillColor=#fff2cc;strokeColor=#d6b656;" vertex="1" parent="luN2ybg4KDdOnXXhsMmT-1">
          <mxGeometry x="280" y="290" width="80" height="80" as="geometry" />
        </mxCell>
        <mxCell id="jagK8JZ-cD4knPiuqzfz-20" style="edgeStyle=orthogonalEdgeStyle;rounded=0;orthogonalLoop=1;jettySize=auto;html=1;entryX=0;entryY=0.5;entryDx=0;entryDy=0;" edge="1" parent="luN2ybg4KDdOnXXhsMmT-1" source="jagK8JZ-cD4knPiuqzfz-19" target="3K5WDLt7FC1SQIRZlHOI-25">
          <mxGeometry relative="1" as="geometry" />
        </mxCell>
        <mxCell id="jagK8JZ-cD4knPiuqzfz-21" value="Não" style="edgeLabel;html=1;align=center;verticalAlign=middle;resizable=0;points=[];" vertex="1" connectable="0" parent="jagK8JZ-cD4knPiuqzfz-20">
          <mxGeometry x="-0.3443" relative="1" as="geometry">
            <mxPoint as="offset" />
          </mxGeometry>
        </mxCell>
        <mxCell id="jagK8JZ-cD4knPiuqzfz-25" style="edgeStyle=orthogonalEdgeStyle;rounded=0;orthogonalLoop=1;jettySize=auto;html=1;entryX=-0.017;entryY=0.879;entryDx=0;entryDy=0;entryPerimeter=0;" edge="1" parent="luN2ybg4KDdOnXXhsMmT-1" source="jagK8JZ-cD4knPiuqzfz-22" target="jagK8JZ-cD4knPiuqzfz-1">
          <mxGeometry relative="1" as="geometry" />
        </mxCell>
        <mxCell id="jagK8JZ-cD4knPiuqzfz-22" value="Downgrade" style="rounded=1;whiteSpace=wrap;html=1;" vertex="1" parent="luN2ybg4KDdOnXXhsMmT-1">
          <mxGeometry x="690" y="480" width="120" height="60" as="geometry" />
        </mxCell>
        <mxCell id="jagK8JZ-cD4knPiuqzfz-26" value="OS Mudança Pacote DOW Acessórios" style="whiteSpace=wrap;html=1;rounded=1;fillColor=#fff2cc;strokeColor=#d6b656;" vertex="1" parent="luN2ybg4KDdOnXXhsMmT-1">
          <mxGeometry x="1140" y="480" width="120" height="60" as="geometry" />
        </mxCell>
        <mxCell id="jagK8JZ-cD4knPiuqzfz-34" style="edgeStyle=orthogonalEdgeStyle;rounded=0;orthogonalLoop=1;jettySize=auto;html=1;entryX=0;entryY=0.5;entryDx=0;entryDy=0;" edge="1" parent="luN2ybg4KDdOnXXhsMmT-1" source="jagK8JZ-cD4knPiuqzfz-28" target="jagK8JZ-cD4knPiuqzfz-31">
          <mxGeometry relative="1" as="geometry" />
        </mxCell>
        <mxCell id="jagK8JZ-cD4knPiuqzfz-28" value="Cancelamento Total" style="rounded=1;whiteSpace=wrap;html=1;" vertex="1" parent="luN2ybg4KDdOnXXhsMmT-1">
          <mxGeometry x="690" y="570" width="120" height="60" as="geometry" />
        </mxCell>
        <mxCell id="jagK8JZ-cD4knPiuqzfz-31" value="" style="ellipse;whiteSpace=wrap;html=1;rounded=1;fillColor=#000000;" vertex="1" parent="luN2ybg4KDdOnXXhsMmT-1">
          <mxGeometry x="875" y="585" width="30" height="30" as="geometry" />
        </mxCell>
        <mxCell id="jagK8JZ-cD4knPiuqzfz-32" value="AS-IS" style="text;html=1;align=center;verticalAlign=middle;whiteSpace=wrap;rounded=0;" vertex="1" parent="luN2ybg4KDdOnXXhsMmT-1">
          <mxGeometry x="860" y="560" width="60" height="30" as="geometry" />
        </mxCell>
        <mxCell id="jagK8JZ-cD4knPiuqzfz-41" value="" style="edgeStyle=orthogonalEdgeStyle;rounded=0;orthogonalLoop=1;jettySize=auto;html=1;" edge="1" parent="luN2ybg4KDdOnXXhsMmT-1" source="jagK8JZ-cD4knPiuqzfz-35" target="jagK8JZ-cD4knPiuqzfz-40">
          <mxGeometry relative="1" as="geometry" />
        </mxCell>
        <mxCell id="jagK8JZ-cD4knPiuqzfz-35" value="NETSMS" style="rounded=1;whiteSpace=wrap;html=1;" vertex="1" parent="luN2ybg4KDdOnXXhsMmT-1">
          <mxGeometry x="100" y="650" width="120" height="60" as="geometry" />
        </mxCell>
        <mxCell id="jagK8JZ-cD4knPiuqzfz-39" style="edgeStyle=orthogonalEdgeStyle;rounded=0;orthogonalLoop=1;jettySize=auto;html=1;entryX=0.5;entryY=0;entryDx=0;entryDy=0;" edge="1" parent="luN2ybg4KDdOnXXhsMmT-1" source="jagK8JZ-cD4knPiuqzfz-38" target="jagK8JZ-cD4knPiuqzfz-35">
          <mxGeometry relative="1" as="geometry" />
        </mxCell>
        <mxCell id="jagK8JZ-cD4knPiuqzfz-38" value="Atendente" style="shape=umlActor;verticalLabelPosition=bottom;verticalAlign=top;html=1;outlineConnect=0;" vertex="1" parent="luN2ybg4KDdOnXXhsMmT-1">
          <mxGeometry x="145" y="520" width="30" height="60" as="geometry" />
        </mxCell>
        <mxCell id="jagK8JZ-cD4knPiuqzfz-42" style="edgeStyle=orthogonalEdgeStyle;rounded=0;orthogonalLoop=1;jettySize=auto;html=1;entryX=0;entryY=0.5;entryDx=0;entryDy=0;" edge="1" parent="luN2ybg4KDdOnXXhsMmT-1" source="jagK8JZ-cD4knPiuqzfz-40" target="jagK8JZ-cD4knPiuqzfz-43">
          <mxGeometry relative="1" as="geometry">
            <mxPoint x="1130" y="680" as="targetPoint" />
          </mxGeometry>
        </mxCell>
        <mxCell id="jagK8JZ-cD4knPiuqzfz-40" value="Troca Equipamento" style="whiteSpace=wrap;html=1;rounded=1;" vertex="1" parent="luN2ybg4KDdOnXXhsMmT-1">
          <mxGeometry x="300" y="650" width="120" height="60" as="geometry" />
        </mxCell>
        <mxCell id="jagK8JZ-cD4knPiuqzfz-43" value="OS Mudança Pacote VT Acessórios" style="whiteSpace=wrap;html=1;rounded=1;fillColor=#fff2cc;strokeColor=#d6b656;" vertex="1" parent="luN2ybg4KDdOnXXhsMmT-1">
          <mxGeometry x="1140" y="650" width="120" height="60" as="geometry" />
        </mxCell>
        <mxCell id="jagK8JZ-cD4knPiuqzfz-44" value="NETSMS" style="shape=cylinder3;whiteSpace=wrap;html=1;boundedLbl=1;backgroundOutline=1;size=15;" vertex="1" parent="luN2ybg4KDdOnXXhsMmT-1">
          <mxGeometry x="260.5" y="200" width="139" height="70" as="geometry" />
        </mxCell>
        <mxCell id="jagK8JZ-cD4knPiuqzfz-45" style="edgeStyle=orthogonalEdgeStyle;rounded=0;orthogonalLoop=1;jettySize=auto;html=1;entryX=0;entryY=0.5;entryDx=0;entryDy=0;entryPerimeter=0;exitX=0.5;exitY=0;exitDx=0;exitDy=0;dashed=1;" edge="1" parent="luN2ybg4KDdOnXXhsMmT-1" source="3K5WDLt7FC1SQIRZlHOI-24" target="jagK8JZ-cD4knPiuqzfz-44">
          <mxGeometry relative="1" as="geometry">
            <Array as="points">
              <mxPoint x="190" y="235" />
            </Array>
          </mxGeometry>
        </mxCell>
        <mxCell id="jagK8JZ-cD4knPiuqzfz-47" style="edgeStyle=orthogonalEdgeStyle;rounded=0;orthogonalLoop=1;jettySize=auto;html=1;entryX=1;entryY=0.5;entryDx=0;entryDy=0;entryPerimeter=0;" edge="1" parent="luN2ybg4KDdOnXXhsMmT-1" source="3K5WDLt7FC1SQIRZlHOI-21" target="jagK8JZ-cD4knPiuqzfz-44">
          <mxGeometry relative="1" as="geometry" />
        </mxCell>
        <mxCell id="jagK8JZ-cD4knPiuqzfz-50" value="Matriz convivência&amp;nbsp;&lt;div&gt;exclusiva SVA&lt;/div&gt;" style="edgeLabel;html=1;align=center;verticalAlign=middle;resizable=0;points=[];" vertex="1" connectable="0" parent="jagK8JZ-cD4knPiuqzfz-47">
          <mxGeometry x="0.0518" y="2" relative="1" as="geometry">
            <mxPoint as="offset" />
          </mxGeometry>
        </mxCell>
        <mxCell id="jagK8JZ-cD4knPiuqzfz-54" value="" style="edgeStyle=orthogonalEdgeStyle;rounded=0;orthogonalLoop=1;jettySize=auto;html=1;" edge="1" parent="luN2ybg4KDdOnXXhsMmT-1" source="jagK8JZ-cD4knPiuqzfz-52" target="jagK8JZ-cD4knPiuqzfz-53">
          <mxGeometry relative="1" as="geometry" />
        </mxCell>
        <mxCell id="jagK8JZ-cD4knPiuqzfz-52" value="API Venda Prospect Solar" style="rounded=1;whiteSpace=wrap;html=1;" vertex="1" parent="luN2ybg4KDdOnXXhsMmT-1">
          <mxGeometry x="300" y="760" width="120" height="60" as="geometry" />
        </mxCell>
        <mxCell id="jagK8JZ-cD4knPiuqzfz-57" style="edgeStyle=orthogonalEdgeStyle;rounded=0;orthogonalLoop=1;jettySize=auto;html=1;entryX=0;entryY=0.5;entryDx=0;entryDy=0;" edge="1" parent="luN2ybg4KDdOnXXhsMmT-1" source="jagK8JZ-cD4knPiuqzfz-53" target="jagK8JZ-cD4knPiuqzfz-55">
          <mxGeometry relative="1" as="geometry" />
        </mxCell>
        <mxCell id="jagK8JZ-cD4knPiuqzfz-53" value="Valida produtos na matriz convivência exclusiva de SVA" style="whiteSpace=wrap;html=1;rounded=1;" vertex="1" parent="luN2ybg4KDdOnXXhsMmT-1">
          <mxGeometry x="500" y="760" width="120" height="60" as="geometry" />
        </mxCell>
        <mxCell id="jagK8JZ-cD4knPiuqzfz-55" value="" style="ellipse;whiteSpace=wrap;html=1;rounded=1;fillColor=#000000;" vertex="1" parent="luN2ybg4KDdOnXXhsMmT-1">
          <mxGeometry x="695" y="775" width="30" height="30" as="geometry" />
        </mxCell>
        <mxCell id="jagK8JZ-cD4knPiuqzfz-56" value="AS-IS" style="text;html=1;align=center;verticalAlign=middle;whiteSpace=wrap;rounded=0;" vertex="1" parent="luN2ybg4KDdOnXXhsMmT-1">
          <mxGeometry x="680" y="750" width="60" height="30" as="geometry" />
        </mxCell>
        <mxCell id="jagK8JZ-cD4knPiuqzfz-58" value="" style="edgeStyle=orthogonalEdgeStyle;rounded=0;orthogonalLoop=1;jettySize=auto;html=1;" edge="1" parent="luN2ybg4KDdOnXXhsMmT-1" source="jagK8JZ-cD4knPiuqzfz-59" target="jagK8JZ-cD4knPiuqzfz-60">
          <mxGeometry relative="1" as="geometry" />
        </mxCell>
        <mxCell id="jagK8JZ-cD4knPiuqzfz-59" value="API Venda Digital" style="rounded=1;whiteSpace=wrap;html=1;" vertex="1" parent="luN2ybg4KDdOnXXhsMmT-1">
          <mxGeometry x="300" y="870" width="120" height="60" as="geometry" />
        </mxCell>
        <mxCell id="jagK8JZ-cD4knPiuqzfz-61" style="edgeStyle=orthogonalEdgeStyle;rounded=0;orthogonalLoop=1;jettySize=auto;html=1;entryX=0.5;entryY=1;entryDx=0;entryDy=0;" edge="1" parent="luN2ybg4KDdOnXXhsMmT-1" source="jagK8JZ-cD4knPiuqzfz-60" target="jagK8JZ-cD4knPiuqzfz-55">
          <mxGeometry relative="1" as="geometry" />
        </mxCell>
        <mxCell id="jagK8JZ-cD4knPiuqzfz-60" value="Valida produtos na matriz convivência exclusiva de SVA" style="whiteSpace=wrap;html=1;rounded=1;" vertex="1" parent="luN2ybg4KDdOnXXhsMmT-1">
          <mxGeometry x="500" y="870" width="120" height="60" as="geometry" />
        </mxCell>
        <mxCell id="jagK8JZ-cD4knPiuqzfz-64" style="edgeStyle=orthogonalEdgeStyle;rounded=0;orthogonalLoop=1;jettySize=auto;html=1;entryX=0;entryY=0.5;entryDx=0;entryDy=0;" edge="1" parent="luN2ybg4KDdOnXXhsMmT-1" source="jagK8JZ-cD4knPiuqzfz-62" target="jagK8JZ-cD4knPiuqzfz-52">
          <mxGeometry relative="1" as="geometry" />
        </mxCell>
        <mxCell id="jagK8JZ-cD4knPiuqzfz-62" value="SOLAR" style="rounded=1;whiteSpace=wrap;html=1;" vertex="1" parent="luN2ybg4KDdOnXXhsMmT-1">
          <mxGeometry x="100" y="760" width="120" height="60" as="geometry" />
        </mxCell>
        <mxCell id="jagK8JZ-cD4knPiuqzfz-65" style="edgeStyle=orthogonalEdgeStyle;rounded=0;orthogonalLoop=1;jettySize=auto;html=1;" edge="1" parent="luN2ybg4KDdOnXXhsMmT-1" source="jagK8JZ-cD4knPiuqzfz-63" target="jagK8JZ-cD4knPiuqzfz-59">
          <mxGeometry relative="1" as="geometry" />
        </mxCell>
        <mxCell id="jagK8JZ-cD4knPiuqzfz-63" value="DIGITAL /&amp;nbsp;&lt;div&gt;E-COMMERCE&lt;/div&gt;" style="rounded=1;whiteSpace=wrap;html=1;" vertex="1" parent="luN2ybg4KDdOnXXhsMmT-1">
          <mxGeometry x="100" y="870" width="120" height="60" as="geometry" />
        </mxCell>
        <mxCell id="jagK8JZ-cD4knPiuqzfz-69" style="edgeStyle=orthogonalEdgeStyle;rounded=0;orthogonalLoop=1;jettySize=auto;html=1;exitX=0;exitY=0.3333333333333333;exitDx=0;exitDy=0;exitPerimeter=0;entryX=0.5;entryY=0.5;entryDx=0;entryDy=0;entryPerimeter=0;" edge="1" parent="luN2ybg4KDdOnXXhsMmT-1" source="luN2ybg4KDdOnXXhsMmT-3" target="luN2ybg4KDdOnXXhsMmT-3">
          <mxGeometry relative="1" as="geometry" />
        </mxCell>
      </root>
    </mxGraphModel>
  </diagram>
</mxfile>
